<?xml version="1.0" encoding="UTF-8" standalone="no"?>
<!DOCTYPE svg PUBLIC "-//W3C//DTD SVG 1.1//EN" "http://www.w3.org/Graphics/SVG/1.1/DTD/svg11.dtd">
<svg xmlns="http://www.w3.org/2000/svg" xmlns:xlink="http://www.w3.org/1999/xlink" version="1.1" width="841.89pt" height="595.28pt" viewBox="0 0 841.89 595.28">
<g enable-background="new">
<g id="Layer-1" data-name="Layer 1">
<clipPath id="cp0">
<path transform="matrix(1,0,0,-1,0,595.28)" d="M 0 595.28 L 841.89 595.28 L 841.89 0 L 0 0 Z "/>
</clipPath>
<g clip-path="url(#cp0)">
<text fill="#000080" xml:space="preserve" transform="matrix(1 0 -0 1 0 595.28)" font-size="66.4317" font-family="KonexyPersonalUseRegular"><tspan y="-466.873" x="-146.6738 -83.895839">RX</tspan></text>
<path transform="matrix(1,0,0,-1,478.8955,370.43363)" d="M 0 0 L 22.574 0 C 23.398 0 24.146 .255 24.598 .639 C 25.051 1.022 25.39 1.505 25.39 2.759 L 25.39 6.723 C 25.39 7.978 25.051 8.459 24.598 8.843 C 24.146 9.227 23.398 9.48 22.574 9.48 L 0 9.48 Z M -5.554 14.061 L 23.268 14.061 C 25.036 14.061 26.912 13.561 28.434 12.27 C 29.956 10.979 30.942 8.866 30.942 6.443 L 30.942 3.036 C 30.942 .903 30.179 -.988 28.958 -2.291 C 30.179 -3.594 30.942 -5.485 30.942 -7.617 L 30.942 -14.139 L 25.39 -14.139 L 25.39 -7.34 C 25.39 -6.085 25.051 -5.604 24.598 -5.22 C 24.146 -4.835 23.398 -4.581 22.574 -4.581 L 0 -4.581 L 0 -14.138 L -5.554 -14.138 Z " fill="#000080"/>
<path transform="matrix(1,0,0,-1,519.4775,356.37214)" d="M 0 0 L 11.215 -10.436 L 22.431 0 L 30.166 0 L 15.083 -14.035 L 30.305 -28.199 L 22.569 -28.199 L 11.215 -17.635 L -.138 -28.199 L -7.874 -28.199 L 7.348 -14.035 L -7.734 0 Z " fill="#000080"/>
<path transform="matrix(1,0,0,-1,297.6611,370.43363)" d="M 0 0 L 22.574 0 C 23.399 0 24.145 .255 24.597 .639 C 25.05 1.022 25.39 1.505 25.39 2.759 L 25.39 6.723 C 25.39 7.978 25.05 8.459 24.597 8.843 C 24.145 9.227 23.399 9.48 22.574 9.48 L 0 9.48 Z M -5.553 14.062 L 23.269 14.062 C 25.036 14.062 26.913 13.561 28.434 12.271 C 29.956 10.979 30.943 8.866 30.943 6.444 L 30.943 3.036 C 30.943 .904 30.179 -.988 28.958 -2.291 C 30.179 -3.594 30.943 -5.485 30.943 -7.617 L 30.943 -14.139 L 25.39 -14.139 L 25.39 -7.339 C 25.39 -6.085 25.05 -5.603 24.597 -5.219 C 24.145 -4.835 23.399 -4.58 22.574 -4.58 L 0 -4.58 L 0 -14.138 L -5.553 -14.138 Z " fill="#000080"/>
<path transform="matrix(1,0,0,-1,0,595.28)" d="M 397.166 210.709 L 391.61299 210.709 L 391.61299 229.767 L 397.166 229.767 Z M 397.166 234.337 L 391.61299 234.337 L 391.61299 239.091 L 397.166 239.091 Z " fill="#000080"/>
<path transform="matrix(1,0,0,-1,422.4912,360.94343)" d="M 0 0 C 1.768 0 3.644 -.501 5.165 -1.791 C 6.267 -2.725 7.08 -4.092 7.45 -5.691 C 7.591 -6.3 7.638 -6.977 7.674 -7.624 C 7.785 -9.54 7.742 -21.777 7.706 -23.628 L 2.122 -23.628 L 2.122 -7.596 C 2.105 -5.93 1.782 -5.603 1.329 -5.219 C .878 -4.834 .131 -4.58 -.694 -4.58 L -12.766 -4.58 C -13.591 -4.58 -14.337 -4.835 -14.789 -5.219 C -15.242 -5.603 -15.562 -5.93 -15.582 -7.596 C -15.584 -7.854 -15.652 -23.628 -15.652 -23.628 L -21.206 -23.628 L -21.206 -.01 L -15.652 -.01 L -15.652 -1.631 C -14.167 -.459 -12.375 0 -10.683 0 Z " fill="#000080"/>
<path transform="matrix(1,0,0,-1,453.0527,380.00593)" d="M 0 0 L -11.155 0 C -13.492 0 -13.971 1.155 -13.971 2.558 C -13.971 3.96 -13.492 5.393 -11.155 5.393 L 0 5.393 L 2.927 5.393 L 11.336 5.393 L 11.336 12.17 C 11.336 16.94 7.115 19.238 3.672 19.238 L -11.081 19.238 L -11.081 19.239 C -14.525 19.239 -18.741 16.941 -18.746 12.171 L -13.203 12.171 C -13.203 13.227 -12.725 14.658 -10.388 14.658 L 2.976 14.658 C 5.313 14.658 5.792 13.226 5.792 12.171 L 5.792 9.974 L .844 9.974 L -12.266 9.974 C -15.709 9.974 -19.926 7.676 -19.926 2.558 C -19.926 -2.562 -15.71 -4.581 -12.266 -4.581 L .844 -4.581 C 2.5 -4.581 11.336 -4.565 11.336 -4.565 L 11.336 0 L 2.927 0 Z " fill="#000080"/>
<path transform="matrix(1,0,0,-1,377.5044,365.51374)" d="M 0 0 L 14.104 0 L 14.113 4.561 L -3.147 4.561 L -3.147 9.324 L -8.702 9.324 L -8.702 4.561 L -12.255 4.561 L -12.264 .042 L 0 .042 Z " fill="#000080"/>
<path transform="matrix(1,0,0,-1,368.8037,376.94734)" d="M 0 0 C 0 0 .083 -1.324 .224 -1.933 C .594 -3.532 1.408 -4.899 2.508 -5.833 C 4.03 -7.124 5.907 -7.625 7.675 -7.625 L 10.208 -7.625 L 10.208 -3.043 L 8.369 -3.043 C 7.545 -3.043 6.799 -2.789 6.346 -2.404 C 5.893 -2.021 5.57 -1.693 5.554 -.028 L 5.548 6.915 L -.006 6.915 Z " fill="#000080"/>
<path transform="matrix(1,0,0,-1,337.5332,370.36915)" d="M 0 0 L 0 2.368 C 0 3.424 .546 4.855 2.883 4.855 L 17.364 4.855 C 19.701 4.855 20.179 3.424 20.179 2.368 L 20.179 0 Z M 25.727 -4.567 L 25.727 2.368 C 25.727 7.139 21.506 9.437 18.062 9.437 L 2.195 9.437 C -1.249 9.437 -5.533 7.139 -5.538 2.368 L -5.538 -7.148 C -5.538 -11.92 -1.249 -14.218 2.195 -14.218 L 18.058 -14.218 C 18.203 -14.218 18.351 -14.211 18.499 -14.202 L 25.285 -14.202 L 25.285 -9.637 L 25.281 -9.637 L 12.973 -9.637 L 10.095 -9.637 L 10.095 -9.636 L 2.889 -9.636 C .552 -9.636 .006 -8.203 .006 -7.148 L .006 -4.567 Z " fill="#000080"/>
<path transform="matrix(1,0,0,-1,473.0352,303.49024)" d="M 0 0 L -10.807 10.6 C -11.826 15.332 -11.07 18.837 -13.336 21.043 C -15.87 23.511 -19.924 23.457 -22.392 20.924 C -24.859 18.39 -24.806 14.335 -22.271 11.868 C -20.006 9.662 -16.522 10.51 -11.765 9.617 L -.958 -.983 C .062 -5.716 -.694 -9.221 1.571 -11.427 C 4.105 -13.895 8.159 -13.841 10.627 -11.307 C 13.095 -8.773 13.041 -4.719 10.507 -2.252 C 8.241 -.045 4.757 -.894 0 0 " fill="#00ffff"/>
<path transform="matrix(1,0,0,-1,449.667,321.64845)" d="M 0 0 L -7.927 7.72 C -8.946 12.452 -8.19 15.957 -10.456 18.163 C -12.99 20.631 -17.044 20.577 -19.512 18.044 C -21.979 15.51 -21.926 11.455 -19.392 8.988 C -17.126 6.781 -13.643 7.63 -8.885 6.736 L -.958 -.982 C .061 -5.715 -.694 -9.22 1.571 -11.427 C 4.104 -13.895 8.159 -13.841 10.626 -11.307 C 13.094 -8.772 13.04 -4.719 10.507 -2.252 C 8.241 -.045 4.757 -.893 0 0 " fill="#00ffff"/>
<path transform="matrix(1,0,0,-1,491.9287,265.78614)" d="M 0 0 L -7.001 6.665 L .446 14.311 C 5.179 15.33 8.684 14.575 10.89 16.84 C 13.357 19.374 13.304 23.428 10.771 25.896 C 8.236 28.363 4.182 28.31 1.715 25.776 C -.492 23.51 .356 20.026 -.537 15.269 L -7.995 7.611 L -12.74 12.127 C -13.228 14.394 -13.312 16.37 -13.513 18.066 C -13.356 19.766 -13.325 21.744 -12.897 24.023 L -4.177 32.951 C .556 33.97 4.061 33.214 6.268 35.48 C 8.734 38.014 8.681 42.068 6.147 44.536 C 3.613 47.003 -.44 46.949 -2.908 44.416 C -5.114 42.15 -4.267 38.666 -5.16 33.909 L -13.881 24.98 C -15.739 24.581 -17.401 24.452 -18.877 24.309 C -20.818 24.571 -22.853 23.962 -24.324 22.452 L -24.324 22.451 C -25.559 21.185 -26.162 19.538 -26.14 17.899 C -26.135 17.489 -26.09 17.08 -26.007 16.678 C -25.84 15.873 -25.517 15.094 -25.038 14.39 C -24.799 14.038 -24.521 13.705 -24.204 13.396 C -22.693 11.924 -20.645 11.371 -18.711 11.684 C -17.231 11.579 -15.566 11.495 -13.697 11.145 L -.957 -.983 C .062 -5.716 -.694 -9.221 1.572 -11.427 C 4.105 -13.895 8.159 -13.841 10.627 -11.307 C 13.095 -8.773 13.041 -4.719 10.507 -2.252 C 8.241 -.045 4.758 -.894 0 0 " fill="#00ffff"/>
<path transform="matrix(1,0,0,-1,454.2227,306.084)" d="M 0 0 L -13.319 13.112 C -13.808 15.378 -13.892 17.355 -14.092 19.05 C -13.936 20.75 -13.905 22.729 -13.478 25.007 L -5.758 32.934 C -3.018 33.524 -.702 33.529 1.201 33.861 C 2.715 33.751 4.423 33.673 6.351 33.311 L 14.277 25.591 C 15.297 20.859 14.541 17.354 16.807 15.147 C 19.341 12.68 23.395 12.734 25.862 15.268 C 28.33 17.801 28.276 21.855 25.742 24.323 C 23.477 26.529 19.993 25.681 15.235 26.574 L 7.309 34.294 C 6.289 39.026 7.045 42.531 4.779 44.738 C 2.246 47.205 -1.809 47.151 -4.275 44.618 C -4.312 44.58 -4.336 44.536 -4.371 44.498 C -4.408 44.461 -4.453 44.437 -4.489 44.399 C -4.975 43.9 -5.295 43.332 -5.536 42.714 C -5.86 41.973 -6.033 41.189 -6.064 40.396 C -6.275 38.579 -6.266 36.42 -6.741 33.892 L -14.46 25.965 C -16.319 25.565 -17.981 25.437 -19.457 25.293 C -21.398 25.555 -23.433 24.947 -24.904 23.436 C -24.967 23.371 -25.01 23.294 -25.069 23.228 C -25.451 22.802 -25.755 22.338 -26.002 21.849 C -26.285 21.291 -26.51 20.711 -26.618 20.108 C -26.982 18.084 -26.368 15.923 -24.784 14.38 C -23.273 12.909 -21.224 12.355 -19.29 12.668 C -17.812 12.563 -16.146 12.479 -14.277 12.129 L -.958 -.983 C .061 -5.716 -.694 -9.22 1.571 -11.427 C 4.104 -13.895 8.159 -13.841 10.626 -11.307 C 13.094 -8.772 13.04 -4.719 10.507 -2.252 C 8.241 -.045 4.757 -.893 0 0 " fill="#000080"/>
<path transform="matrix(1,0,0,-1,446,222.29492)" d="M 0 0 C -2.468 -2.534 -2.414 -6.588 .119 -9.055 C 2.653 -11.523 6.708 -11.469 9.175 -8.936 C 11.382 -6.669 10.533 -3.186 11.427 1.572 L 24.257 14.608 C 28.988 15.628 32.493 14.872 34.7 17.138 C 37.168 19.671 37.114 23.726 34.58 26.193 C 32.046 28.661 27.992 28.607 25.525 26.073 C 23.318 23.808 24.166 20.324 23.273 15.566 L 10.443 2.529 C 5.711 1.51 2.206 2.266 0 0 " fill="#000080"/>
<path transform="matrix(1,0,0,-1,453.6582,193.63922)" d="M 0 0 C -2.206 -2.266 -1.358 -5.75 -2.251 -10.507 L -16.632 -25.095 C -21.364 -26.114 -24.869 -25.358 -27.075 -27.624 C -29.543 -30.157 -29.489 -34.211 -26.955 -36.679 C -26.918 -36.715 -26.873 -36.739 -26.835 -36.774 C -26.799 -36.812 -26.774 -36.856 -26.736 -36.892 C -26.237 -37.378 -25.669 -37.698 -25.052 -37.939 C -24.311 -38.263 -23.527 -38.437 -22.734 -38.467 C -20.917 -38.678 -18.759 -38.669 -16.229 -39.144 L -8.303 -46.863 C -7.902 -48.722 -7.774 -50.384 -7.631 -51.86 C -7.893 -53.801 -7.284 -55.835 -5.773 -57.307 C -5.709 -57.371 -5.632 -57.413 -5.565 -57.473 C -5.14 -57.854 -4.676 -58.158 -4.187 -58.405 C -3.628 -58.688 -3.049 -58.913 -2.445 -59.022 C -.422 -59.386 1.739 -58.771 3.282 -57.188 C 4.753 -55.676 5.308 -53.627 4.994 -51.693 C 5.099 -50.214 5.183 -48.549 5.533 -46.68 L 19.64 -32.367 C 24.372 -31.348 27.877 -32.104 30.084 -29.837 C 32.551 -27.304 32.497 -23.25 29.964 -20.782 C 27.43 -18.314 23.376 -18.368 20.908 -20.902 C 18.701 -23.168 19.55 -26.652 18.656 -31.409 L 4.55 -45.723 C 2.284 -46.211 .308 -46.294 -1.388 -46.495 C -3.088 -46.339 -5.066 -46.308 -7.345 -45.88 L -15.271 -38.161 C -15.861 -35.42 -15.867 -33.105 -16.198 -31.202 C -16.089 -29.689 -16.011 -27.98 -15.648 -26.052 L -1.269 -11.465 C 3.464 -10.446 6.969 -11.201 9.176 -8.936 C 11.644 -6.402 11.589 -2.348 9.056 .12 C 6.522 2.587 2.468 2.534 0 0 " fill="#00ffff"/>
<path transform="matrix(1,0,0,-1,396.4219,291.99903)" d="M 0 0 C 2.467 2.534 2.414 6.588 -.12 9.056 C -2.654 11.523 -6.708 11.469 -9.175 8.936 C -11.382 6.67 -10.534 3.186 -11.427 -1.571 L -23.537 -13.889 C -28.269 -14.907 -31.774 -14.151 -33.98 -16.418 C -36.448 -18.951 -36.394 -23.006 -33.86 -25.473 C -31.327 -27.94 -27.272 -27.887 -24.805 -25.354 C -22.599 -23.087 -23.447 -19.604 -22.554 -14.846 L -10.444 -2.529 C -5.711 -1.51 -2.207 -2.266 0 0 " fill="#00ffff"/>
<path transform="matrix(1,0,0,-1,390.9189,318.45414)" d="M 0 0 C 2.207 2.267 1.358 5.75 2.251 10.508 L 16.16 24.623 C 20.892 25.642 24.397 24.886 26.604 27.152 C 29.071 29.686 29.017 33.74 26.483 36.207 C 26.446 36.244 26.401 36.268 26.363 36.303 C 26.327 36.34 26.302 36.384 26.265 36.42 C 25.766 36.906 25.197 37.226 24.58 37.467 C 23.839 37.792 23.055 37.965 22.262 37.996 C 20.444 38.207 18.286 38.197 15.757 38.672 L 7.831 46.392 C 7.431 48.25 7.302 49.913 7.159 51.388 C 7.421 53.33 6.812 55.364 5.302 56.835 L 5.301 56.835 C 4.035 58.069 2.388 58.673 .749 58.651 C -.48 58.635 -1.704 58.267 -2.76 57.549 C -3.112 57.31 -3.445 57.032 -3.754 56.715 C -3.755 56.714 -3.756 56.712 -3.757 56.711 C -5.226 55.201 -5.779 53.153 -5.466 51.222 C -5.571 49.743 -5.654 48.077 -6.005 46.208 L -13.725 38.282 C -17.134 37.547 -19.896 37.721 -22.004 37.036 C -23.172 37.119 -24.432 37.229 -25.812 37.488 L -40.263 51.731 C -41.282 56.464 -40.526 59.968 -42.792 62.175 C -45.326 64.643 -49.38 64.589 -51.848 62.055 C -54.315 59.521 -54.261 55.467 -51.728 53 C -49.462 50.793 -45.978 51.642 -41.221 50.748 L -33.014 42.659 L -35.941 39.544 C -40.673 38.525 -44.178 39.28 -46.385 37.015 C -48.852 34.481 -48.798 30.427 -46.265 27.959 C -43.731 25.492 -39.677 25.545 -37.209 28.079 C -35.003 30.345 -35.851 33.829 -34.958 38.586 L -32.036 41.695 L -26.771 36.505 C -25.751 31.772 -26.507 28.268 -24.241 26.061 C -21.708 23.594 -17.653 23.647 -15.186 26.181 C -13.891 27.511 -13.309 29.258 -13.397 30.977 C -13.205 32.761 -13.203 34.87 -12.742 37.324 L -5.022 45.251 C -2.756 45.739 -.779 45.822 .916 46.023 C 2.616 45.867 4.595 45.836 6.873 45.409 L 14.8 37.689 C 15.39 34.949 15.395 32.634 15.727 30.73 C 15.617 29.217 15.539 27.509 15.176 25.581 L 1.269 11.465 C -3.464 10.446 -6.969 11.202 -9.175 8.936 C -11.643 6.402 -11.589 2.348 -9.055 -.119 C -6.522 -2.587 -2.467 -2.533 0 0 " fill="#00ffff"/>
<path transform="matrix(1,0,0,-1,372.771,208.24802)" d="M 0 0 L 11.003 -10.796 C 12.022 -15.528 11.267 -19.033 13.533 -21.24 C 16.066 -23.707 20.12 -23.653 22.588 -21.12 C 25.055 -18.586 25.002 -14.532 22.468 -12.064 C 20.202 -9.858 16.718 -10.706 11.961 -9.813 L .958 .983 C -.062 5.716 .694 9.221 -1.571 11.427 C -4.105 13.895 -8.159 13.841 -10.627 11.307 C -13.094 8.773 -13.041 4.719 -10.507 2.252 C -8.241 .045 -4.757 .894 0 0 " fill="#00ffff"/>
<path transform="matrix(1,0,0,-1,411.7305,187.22364)" d="M 0 0 L 12.169 -11.962 C 13.188 -16.694 12.433 -20.199 14.698 -22.406 C 16.444 -24.106 18.906 -24.581 21.079 -23.899 C 22.302 -23.654 23.466 -23.054 24.401 -22.093 C 26.607 -19.827 25.76 -16.343 26.652 -11.586 L 34.372 -3.659 C 39.104 -2.64 42.609 -3.396 44.816 -1.13 C 47.283 1.404 47.229 5.458 44.696 7.925 C 42.162 10.393 38.108 10.339 35.641 7.806 C 33.435 5.54 34.282 2.056 33.389 -2.702 L 25.67 -10.628 C 22.912 -11.222 20.584 -11.223 18.675 -11.561 C 17.065 -11.433 15.228 -11.374 13.127 -10.979 L 8.204 -6.14 L 15.515 1.366 C 20.247 2.385 23.752 1.63 25.958 3.896 C 28.426 6.429 28.372 10.483 25.838 12.951 C 23.305 15.418 19.25 15.365 16.783 12.831 C 14.576 10.565 15.425 7.082 14.531 2.324 L 7.225 -5.178 L .958 .983 C -.062 5.715 .694 9.22 -1.572 11.427 C -4.105 13.894 -8.159 13.841 -10.627 11.307 C -13.095 8.773 -13.041 4.719 -10.507 2.251 C -8.241 .045 -4.757 .893 0 0 " fill="#000080"/>
<path transform="matrix(1,0,0,-1,395.0972,191.55814)" d="M 0 0 L 7.927 -7.719 C 8.946 -12.452 8.19 -15.957 10.456 -18.164 C 12.99 -20.631 17.044 -20.577 19.511 -18.043 C 21.979 -15.51 21.925 -11.456 19.392 -8.988 C 17.125 -6.782 13.642 -7.629 8.884 -6.736 L .958 .983 C -.062 5.715 .694 9.22 -1.572 11.427 C -4.105 13.895 -8.159 13.841 -10.627 11.307 C -13.094 8.773 -13.041 4.719 -10.507 2.251 C -8.241 .045 -4.757 .893 0 0 " fill="#00ffff"/>
<path transform="matrix(1,0,0,-1,488.6445,280.74415)" d="M 0 0 L -7.927 7.719 C -8.945 12.452 -8.189 15.957 -10.456 18.163 C -12.989 20.63 -17.044 20.577 -19.511 18.043 C -21.979 15.509 -21.925 11.455 -19.392 8.988 C -17.125 6.781 -13.642 7.629 -8.884 6.736 L -.957 -.983 C .062 -5.716 -.694 -9.221 1.571 -11.427 C 4.105 -13.895 8.159 -13.841 10.627 -11.307 C 13.095 -8.773 13.041 -4.719 10.507 -2.252 C 8.241 -.045 4.758 -.894 0 0 " fill="#00ffff"/>
<path transform="matrix(1,0,0,-1,387.0005,250.58844)" d="M 0 0 C 2.534 -2.467 6.588 -2.414 9.055 .12 C 9.092 .158 9.116 .203 9.151 .241 C 9.188 .277 9.232 .302 9.269 .339 C 9.754 .837 10.073 1.405 10.314 2.021 C 10.639 2.763 10.813 3.547 10.843 4.341 C 11.055 6.159 11.045 8.317 11.52 10.846 L 19.24 18.773 C 21.098 19.173 22.76 19.301 24.236 19.444 C 26.177 19.183 28.211 19.791 29.683 21.302 L 29.684 21.302 C 29.747 21.367 29.789 21.443 29.849 21.51 C 30.23 21.936 30.534 22.4 30.782 22.889 C 31.064 23.447 31.289 24.027 31.398 24.63 C 31.543 25.439 31.532 26.271 31.365 27.076 C 31.115 28.284 30.514 29.432 29.563 30.357 C 28.053 31.829 26.003 32.383 24.07 32.07 C 22.59 32.174 20.925 32.258 19.057 32.609 L 9.184 42.275 C 8.165 47.007 8.92 50.512 6.654 52.719 C 4.121 55.186 .066 55.132 -2.401 52.599 C -4.869 50.065 -4.815 46.011 -2.281 43.543 C -.015 41.337 3.468 42.185 8.226 41.292 L 18.099 31.626 C 18.587 29.359 18.67 27.382 18.871 25.687 C 18.715 23.987 18.684 22.009 18.256 19.73 L 10.537 11.804 C 7.796 11.214 5.482 11.208 3.579 10.877 C 2.065 10.986 .356 11.065 -1.572 11.427 L -9.499 19.146 C -10.518 23.879 -9.762 27.384 -12.028 29.59 C -14.561 32.058 -18.615 32.004 -21.083 29.471 C -23.55 26.937 -23.497 22.882 -20.963 20.415 C -18.697 18.208 -15.213 19.057 -10.456 18.164 L -2.529 10.444 C -1.51 5.712 -2.266 2.207 0 0 " fill="#000080"/>
<path transform="matrix(1,0,0,-1,364.1255,258.31883)" d="M 0 0 L -7.927 7.719 C -8.946 12.452 -8.19 15.957 -10.456 18.163 C -12.989 20.631 -17.044 20.577 -19.511 18.043 C -21.979 15.509 -21.925 11.455 -19.392 8.988 C -17.125 6.781 -13.642 7.629 -8.884 6.736 L -.958 -.983 C .062 -5.716 -.694 -9.22 1.572 -11.427 C 4.105 -13.895 8.16 -13.841 10.627 -11.307 C 13.094 -8.773 13.041 -4.719 10.507 -2.252 C 8.241 -.045 4.757 -.894 0 0 " fill="#000080"/>
<path transform="matrix(1,0,0,-1,431.8975,325.69825)" d="M 0 0 L -5.993 5.891 L -5.983 5.901 L -6.967 6.859 L -6.973 6.853 L -12.104 11.896 C -12.368 13.125 -12.512 14.267 -12.622 15.329 C -11.875 17.583 -12.395 20.16 -14.21 21.928 C -14.289 22.005 -14.381 22.057 -14.462 22.129 C -14.524 22.196 -14.565 22.274 -14.633 22.34 C -17.167 24.808 -21.221 24.754 -23.688 22.22 C -25.504 20.355 -25.943 17.671 -25.044 15.397 C -25.13 14.152 -25.236 12.797 -25.517 11.302 L -33.236 3.375 C -37.969 2.355 -41.474 3.111 -43.68 .846 C -46.147 -1.688 -46.094 -5.742 -43.56 -8.21 C -41.026 -10.678 -36.972 -10.624 -34.505 -8.09 C -32.298 -5.824 -33.146 -2.341 -32.253 2.417 L -24.534 10.344 C -21.521 10.992 -19.012 10.928 -17.012 11.375 C -15.806 11.291 -14.499 11.183 -13.062 10.913 L -7.931 5.87 L -14.686 -1.067 C -19.418 -2.087 -22.923 -1.331 -25.13 -3.597 C -27.597 -6.131 -27.543 -10.185 -25.01 -12.652 C -22.476 -15.119 -18.422 -15.066 -15.955 -12.532 C -13.748 -10.267 -14.596 -6.782 -13.703 -2.025 L -6.951 4.907 L -.958 -.983 C .062 -5.716 -.694 -9.221 1.571 -11.427 C 4.105 -13.895 8.159 -13.841 10.627 -11.308 C 13.094 -8.773 13.04 -4.719 10.507 -2.252 C 8.241 -.045 4.757 -.894 0 0 " fill="#000080"/>
<path transform="matrix(1,0,0,-1,354.4556,231.50104)" d="M 0 0 L 7.927 -7.719 C 8.946 -12.452 8.19 -15.957 10.456 -18.163 C 12.99 -20.63 17.044 -20.577 19.511 -18.043 C 21.979 -15.509 21.925 -11.455 19.392 -8.988 C 17.126 -6.781 13.642 -7.629 8.885 -6.736 L .958 .983 C -.061 5.716 .694 9.22 -1.571 11.427 C -4.105 13.895 -8.159 13.841 -10.626 11.307 C -13.094 8.773 -13.041 4.719 -10.507 2.252 C -8.241 .045 -4.757 .894 0 0 " fill="#00ffff"/>
<path transform="matrix(1,0,0,-1,436.666,270.40824)" d="M 0 0 C 7.459 7.659 7.297 19.916 -.363 27.375 C -8.022 34.834 -20.279 34.672 -27.738 27.012 C -35.197 19.353 -35.035 7.097 -27.375 -.363 C -19.716 -7.822 -7.46 -7.66 0 0 " fill="#000080"/>
</g>
</g>
</g>
</svg>
